<svg width="1440" height="1024" viewBox="0 0 1440 1024" fill="none" xmlns="http://www.w3.org/2000/svg">
<rect width="1440" height="1024" fill="#2D2D2D"/>
<path d="M189.738 434.941H153.56V384.408H189.738C195.076 384.408 199.359 382.611 202.588 379.015C205.883 375.42 208.288 370.493 209.804 364.235C211.385 357.844 212.176 350.653 212.176 342.664C212.176 334.408 211.385 326.752 209.804 319.695C208.288 312.504 205.883 306.712 202.588 302.318C199.359 297.924 195.076 295.727 189.738 295.727H165.224V536.005H133V245.194H189.738C201.204 245.194 211.023 249.389 219.194 257.778C227.431 266.166 233.725 277.684 238.074 292.331C242.489 306.845 244.697 323.49 244.697 342.265C244.697 361.039 242.489 377.351 238.074 391.199C233.725 405.047 227.431 415.833 219.194 423.556C211.023 431.146 201.204 434.941 189.738 434.941Z" fill="#BA3737"/>
<path d="M298.568 245.194V536.005H266.443V245.194H298.568Z" fill="#BA3737"/>
<path d="M418.469 485.673V536.005H345.817V485.673H418.469ZM356.789 245.194V536.005H324.565V245.194H356.789Z" fill="#BA3737"/>
<path d="M543.707 382.411V499.654C541.335 505.113 537.711 510.972 532.834 517.23C528.024 523.489 521.862 528.882 514.35 533.409C506.838 537.803 497.875 540 487.464 540C478.04 540 469.474 536.937 461.764 530.812C454.053 524.554 447.431 515.433 441.895 503.449C436.36 491.332 432.077 476.552 429.045 459.108C426.08 441.665 424.597 421.692 424.597 399.188V382.011C424.597 359.508 426.08 339.535 429.045 322.092C432.011 304.648 436.195 289.935 441.599 277.951C447.002 265.833 453.427 256.646 460.874 250.387C468.32 244.129 476.558 241 485.586 241C498.436 241 508.946 245.194 517.118 253.583C525.289 261.839 531.483 273.29 535.701 287.937C539.984 302.584 542.62 319.428 543.608 338.47H512.571C511.912 328.749 510.594 320.36 508.617 313.303C506.706 306.246 503.971 300.853 500.412 297.125C496.854 293.263 492.241 291.333 486.574 291.333C482.027 291.333 477.908 293.263 474.218 297.125C470.594 300.853 467.53 306.512 465.025 314.102C462.521 321.692 460.61 331.146 459.292 342.464C457.974 353.649 457.315 366.699 457.315 381.612V399.188C457.315 414.102 457.974 427.218 459.292 438.536C460.676 449.854 462.686 459.308 465.322 466.898C467.958 474.354 471.286 480.014 475.305 483.875C479.391 487.737 484.136 489.667 489.539 489.667C493.757 489.667 497.315 489.002 500.215 487.67C503.114 486.205 505.487 484.408 507.332 482.277C509.177 480.014 510.561 477.95 511.483 476.085V427.75H485.882V382.411H543.707Z" fill="#BA3737"/>
<path d="M565.75 245.194H621.005C632.01 245.194 641.532 248.523 649.572 255.181C657.677 261.839 663.905 271.692 668.254 284.741C672.603 297.791 674.778 313.902 674.778 333.077C674.778 349.055 673.493 362.637 670.923 373.822C668.353 385.007 664.728 394.262 660.05 401.585C655.437 408.909 650.033 414.834 643.839 419.361L633.361 430.946H586.31L586.112 380.413H621.104C625.915 380.413 629.901 378.682 633.065 375.22C636.228 371.758 638.6 366.898 640.181 360.64C641.829 354.248 642.653 346.792 642.653 338.27C642.653 329.482 641.829 321.892 640.181 315.5C638.534 309.109 636.096 304.249 632.867 300.92C629.704 297.458 625.75 295.727 621.005 295.727H597.974V536.005H565.75V245.194ZM645.42 536.005L613.098 406.778L647.101 406.578L679.918 533.009V536.005H645.42Z" fill="#BA3737"/>
<path d="M730.923 245.194V536.005H698.797V245.194H730.923Z" fill="#BA3737"/>
<path d="M772.339 245.194H799.028L833.624 453.116L868.122 245.194H894.81L844.398 536.005H822.751L772.339 245.194ZM756.919 245.194H784.102L789.143 460.706V536.005H756.919V245.194ZM883.047 245.194H910.329V536.005H878.006V460.706L883.047 245.194Z" fill="#BA3737"/>
<path d="M995.831 300.52L958.665 536.005H924.266L977.545 245.194H999.291L995.831 300.52ZM1026.67 536.005L989.406 300.52L985.551 245.194H1007.59L1061.07 536.005H1026.67ZM1025.09 427.75V478.083H950.065V427.75H1025.09Z" fill="#BA3737"/>
<path d="M1187 382.411V499.654C1184.63 505.113 1181 510.972 1176.13 517.23C1171.32 523.489 1165.16 528.882 1157.64 533.409C1150.13 537.803 1141.17 540 1130.76 540C1121.33 540 1112.77 536.937 1105.06 530.812C1097.35 524.554 1090.72 515.433 1085.19 503.449C1079.65 491.332 1075.37 476.552 1072.34 459.108C1069.37 441.665 1067.89 421.692 1067.89 399.188V382.011C1067.89 359.508 1069.37 339.535 1072.34 322.092C1075.3 304.648 1079.49 289.935 1084.89 277.951C1090.3 265.833 1096.72 256.646 1104.17 250.387C1111.61 244.129 1119.85 241 1128.88 241C1141.73 241 1152.24 245.194 1160.41 253.583C1168.58 261.839 1174.78 273.29 1178.99 287.937C1183.28 302.584 1185.91 319.428 1186.9 338.47H1155.86C1155.2 328.749 1153.89 320.36 1151.91 313.303C1150 306.246 1147.26 300.853 1143.71 297.125C1140.15 293.263 1135.53 291.333 1129.87 291.333C1125.32 291.333 1121.2 293.263 1117.51 297.125C1113.89 300.853 1110.82 306.512 1108.32 314.102C1105.81 321.692 1103.9 331.146 1102.59 342.464C1101.27 353.649 1100.61 366.699 1100.61 381.612V399.188C1100.61 414.102 1101.27 427.218 1102.59 438.536C1103.97 449.854 1105.98 459.308 1108.62 466.898C1111.25 474.354 1114.58 480.014 1118.6 483.875C1122.68 487.737 1127.43 489.667 1132.83 489.667C1137.05 489.667 1140.61 489.002 1143.51 487.67C1146.41 486.205 1148.78 484.408 1150.62 482.277C1152.47 480.014 1153.85 477.95 1154.78 476.085V427.75H1129.18V382.411H1187Z" fill="#BA3737"/>
<path d="M1306.9 485.673V536.005H1230.3V485.673H1306.9ZM1241.27 245.194V536.005H1209.04V245.194H1241.27ZM1297.02 362.238V410.973H1230.3V362.238H1297.02ZM1307 245.194V295.727H1230.3V245.194H1307Z" fill="#BA3737"/>
</svg>
