<svg width="703" height="899" viewBox="0 0 703 899" fill="none" xmlns="http://www.w3.org/2000/svg">
<path d="M185.858 401.701L317.406 308.66C342.75 291.452 362.261 274.244 375.939 257.037C390.019 239.429 397.059 215.418 397.059 185.005C397.059 161.394 387.807 139.985 369.301 120.776C350.796 101.167 324.647 91.363 290.855 91.363C267.522 91.363 247.81 96.7654 231.718 107.57C215.627 118.375 203.558 132.781 195.512 150.79C187.467 168.397 183.444 187.806 183.444 209.015C183.444 227.023 187.869 245.632 196.719 264.84C205.57 284.049 217.839 304.058 233.529 324.867C249.218 345.676 267.12 367.686 287.234 390.896L703 886.717H569.038L228.098 480.937C197.926 445.721 170.973 413.507 147.238 384.294C123.503 354.68 104.796 326.068 91.1185 298.455C77.8429 270.843 71.2052 242.23 71.2052 212.617C71.2052 166.997 80.2567 128.58 98.3597 97.3657C116.865 65.7516 142.611 41.7409 175.599 25.3336C208.587 8.92631 247.207 0.722656 291.458 0.722656C334.503 0.722656 371.514 9.32649 402.49 26.5342C433.869 43.3416 458.006 65.7516 474.902 93.7641C491.798 121.376 500.246 151.79 500.246 185.005C500.246 213.017 495.218 238.228 485.16 260.638C475.103 282.648 461.023 302.857 442.92 321.265C425.219 339.674 404.502 357.682 380.767 375.29L206.374 504.347C177.409 525.556 156.289 545.765 143.014 564.974C129.738 584.183 121.089 601.19 117.066 615.997C113.445 630.803 111.635 642.609 111.635 651.412C111.635 679.825 117.871 705.837 130.342 729.447C142.813 753.058 161.72 772.066 187.064 786.473C212.811 800.479 244.994 807.482 283.614 807.482C317.406 807.482 350.193 799.879 381.973 784.672C414.156 769.065 442.92 747.055 468.264 718.642C493.609 689.83 513.723 655.614 528.608 615.997C543.895 575.979 551.538 531.759 551.538 483.338H651.708C651.708 522.955 647.886 560.372 640.243 595.588C632.599 630.803 620.732 663.618 604.64 694.031C588.951 724.045 568.837 751.457 544.297 776.268C540.676 779.87 537.86 784.072 535.849 788.874C533.838 793.676 531.021 797.878 527.401 801.479C497.229 833.894 460.017 858.305 415.766 874.712C371.916 890.719 327.866 898.723 283.614 898.723C225.282 898.723 174.795 888.118 132.152 866.908C89.9116 845.699 57.3262 816.486 34.3957 779.269C11.4652 742.053 0 699.434 0 651.412C0 614.596 7.84463 582.182 23.5339 554.169C39.6255 526.157 61.5502 499.945 89.3082 475.534C117.468 451.123 149.652 426.512 185.858 401.701Z" fill="#B3B3B3"/>
</svg>
