<svg width="1174" height="299" viewBox="0 0 1174 299" fill="none" xmlns="http://www.w3.org/2000/svg">
<path d="M56.7379 193.941H20.5601V143.408H56.7379C62.0756 143.408 66.359 141.611 69.5879 138.015C72.8828 134.42 75.2881 129.493 76.8037 123.235C78.3853 116.844 79.1761 109.653 79.1761 101.664C79.1761 93.4084 78.3853 85.7519 76.8037 78.6947C75.2881 71.5043 72.8828 65.7121 69.5879 61.318C66.359 56.9238 62.0756 54.7268 56.7379 54.7268H32.224V295.005H0V4.19439H56.7379C68.2041 4.19439 78.0229 8.38878 86.1942 16.7776C94.4314 25.1663 100.725 36.6843 105.074 51.3313C109.489 65.8452 111.697 82.4896 111.697 101.265C111.697 120.039 109.489 136.351 105.074 150.199C100.725 164.047 94.4314 174.833 86.1942 182.556C78.0229 190.146 68.2041 193.941 56.7379 193.941Z" fill="#BA3737"/>
<path d="M165.568 4.19439V295.005H133.443V4.19439H165.568Z" fill="#BA3737"/>
<path d="M285.469 244.673V295.005H212.817V244.673H285.469ZM223.789 4.19439V295.005H191.565V4.19439H223.789Z" fill="#BA3737"/>
<path d="M410.707 141.411V258.654C408.335 264.113 404.711 269.972 399.834 276.23C395.024 282.489 388.862 287.882 381.35 292.409C373.838 296.803 364.875 299 354.464 299C345.04 299 336.474 295.937 328.764 289.812C321.053 283.554 314.431 274.433 308.895 262.449C303.36 250.332 299.077 235.552 296.045 218.108C293.08 200.665 291.597 180.692 291.597 158.188V141.011C291.597 118.508 293.08 98.5348 296.045 81.0915C299.011 63.6482 303.195 48.9345 308.599 36.9506C314.002 24.8334 320.427 15.6457 327.874 9.38744C335.32 3.12915 343.558 0 352.586 0C365.436 0 375.946 4.19439 384.118 12.5832C392.289 20.8388 398.483 32.2901 402.701 46.9372C406.984 61.5843 409.62 78.4284 410.608 97.4696H379.571C378.912 87.7493 377.594 79.3605 375.617 72.3033C373.706 65.246 370.971 59.8533 367.413 56.1249C363.854 52.2634 359.241 50.3327 353.574 50.3327C349.027 50.3327 344.908 52.2634 341.218 56.1249C337.594 59.8533 334.53 65.5124 332.025 73.1022C329.521 80.692 327.61 90.1461 326.292 101.464C324.974 112.649 324.315 125.699 324.315 140.612V158.188C324.315 173.102 324.974 186.218 326.292 197.536C327.676 208.854 329.686 218.308 332.322 225.898C334.958 233.354 338.286 239.014 342.305 242.875C346.391 246.737 351.136 248.667 356.539 248.667C360.757 248.667 364.315 248.002 367.215 246.67C370.114 245.205 372.487 243.408 374.332 241.277C376.177 239.014 377.561 236.95 378.483 235.085V186.75H352.882V141.411H410.707Z" fill="#BA3737"/>
<path d="M432.75 4.19439H488.005C499.01 4.19439 508.532 7.52327 516.572 14.181C524.677 20.8388 530.905 30.6923 535.254 43.7415C539.603 56.7907 541.778 72.9025 541.778 92.0768C541.778 108.055 540.493 121.637 537.923 132.822C535.353 144.007 531.728 153.262 527.05 160.585C522.437 167.909 517.033 173.834 510.839 178.361L500.361 189.946H453.31L453.112 139.413H488.104C492.915 139.413 496.901 137.682 500.065 134.22C503.228 130.758 505.6 125.898 507.181 119.64C508.829 113.248 509.653 105.792 509.653 97.2699C509.653 88.4816 508.829 80.8918 507.181 74.5003C505.534 68.1089 503.096 63.2487 499.867 59.9198C496.704 56.4578 492.75 54.7268 488.005 54.7268H464.974V295.005H432.75V4.19439ZM512.42 295.005L480.098 165.778L514.101 165.578L546.918 292.009V295.005H512.42Z" fill="#BA3737"/>
<path d="M597.923 4.19439V295.005H565.797V4.19439H597.923Z" fill="#BA3737"/>
<path d="M639.339 4.19439H666.028L700.624 212.116L735.122 4.19439H761.81L711.398 295.005H689.751L639.339 4.19439ZM623.919 4.19439H651.102L656.143 219.706V295.005H623.919V4.19439ZM750.047 4.19439H777.329V295.005H745.006V219.706L750.047 4.19439Z" fill="#BA3737"/>
<path d="M862.831 59.5204L825.665 295.005H791.266L844.545 4.19439H866.291L862.831 59.5204ZM893.671 295.005L856.406 59.5204L852.551 4.19439H874.594L928.07 295.005H893.671ZM892.09 186.75V237.083H817.065V186.75H892.09Z" fill="#BA3737"/>
<path d="M1054 141.411V258.654C1051.63 264.113 1048 269.972 1043.13 276.23C1038.32 282.489 1032.16 287.882 1024.64 292.409C1017.13 296.803 1008.17 299 997.757 299C988.333 299 979.767 295.937 972.057 289.812C964.347 283.554 957.724 274.433 952.188 262.449C946.653 250.332 942.37 235.552 939.338 218.108C936.373 200.665 934.89 180.692 934.89 158.188V141.011C934.89 118.508 936.373 98.5348 939.338 81.0915C942.304 63.6482 946.488 48.9345 951.892 36.9506C957.296 24.8334 963.721 15.6457 971.167 9.38744C978.613 3.12915 986.851 0 995.879 0C1008.73 0 1019.24 4.19439 1027.41 12.5832C1035.58 20.8388 1041.78 32.2901 1045.99 46.9372C1050.28 61.5843 1052.91 78.4284 1053.9 97.4696H1022.86C1022.2 87.7493 1020.89 79.3605 1018.91 72.3033C1017 65.246 1014.26 59.8533 1010.71 56.1249C1007.15 52.2634 1002.53 50.3327 996.867 50.3327C992.32 50.3327 988.202 52.2634 984.511 56.1249C980.887 59.8533 977.823 65.5124 975.319 73.1022C972.814 80.692 970.903 90.1461 969.585 101.464C968.268 112.649 967.609 125.699 967.609 140.612V158.188C967.609 173.102 968.268 186.218 969.585 197.536C970.969 208.854 972.979 218.308 975.615 225.898C978.251 233.354 981.579 239.014 985.599 242.875C989.684 246.737 994.429 248.667 999.833 248.667C1004.05 248.667 1007.61 248.002 1010.51 246.67C1013.41 245.205 1015.78 243.408 1017.62 241.277C1019.47 239.014 1020.85 236.95 1021.78 235.085V186.75H996.175V141.411H1054Z" fill="#BA3737"/>
<path d="M1173.9 244.673V295.005H1097.3V244.673H1173.9ZM1108.27 4.19439V295.005H1076.04V4.19439H1108.27ZM1164.02 121.238V169.973H1097.3V121.238H1164.02ZM1174 4.19439V54.7268H1097.3V4.19439H1174Z" fill="#BA3737"/>
</svg>
