<svg width="428" height="927" viewBox="0 0 428 927" fill="none" xmlns="http://www.w3.org/2000/svg">
<rect width="428" height="926" transform="translate(0 0.722656)" fill="#373737"/>
<path d="M185.522 443.337V444.561H189.626V443.337H185.522ZM188.78 438.873V450.789H190.274V438.873H188.78ZM179.888 453.543V454.767H190.724V453.543H179.888ZM179.888 449.745V454.173H181.382V449.745H179.888ZM181.04 440.889V442.203C181.04 444.507 179.366 446.667 176.936 447.531L177.71 448.719C180.428 447.711 182.264 445.155 182.264 442.203V440.889H181.04ZM181.328 440.889V442.185C181.328 444.939 183.074 447.387 185.72 448.341L186.476 447.171C184.118 446.343 182.534 444.291 182.534 442.185V440.889H181.328ZM177.404 440.187V441.393H186.098V440.187H177.404ZM212.845 442.473V443.715H217.759V442.473H212.845ZM212.845 447.621V448.863H217.759V447.621H212.845ZM209.857 440.097C207.481 440.097 205.807 442.311 205.807 445.767C205.807 449.241 207.481 451.455 209.857 451.455C212.215 451.455 213.907 449.241 213.907 445.767C213.907 442.311 212.215 440.097 209.857 440.097ZM209.857 441.447C211.423 441.447 212.503 443.139 212.503 445.767C212.503 448.413 211.423 450.141 209.857 450.141C208.291 450.141 207.211 448.413 207.211 445.767C207.211 443.139 208.291 441.447 209.857 441.447ZM217.435 438.837V455.145H218.911V438.837H217.435ZM234.983 440.007V448.071H242.597V440.007H241.121V442.725H236.441V440.007H234.983ZM236.441 443.913H241.121V446.847H236.441V443.913ZM245.963 438.873V450.879H247.475V438.873H245.963ZM236.909 453.543V454.767H247.853V453.543H236.909ZM236.909 449.691V454.119H238.403V449.691H236.909Z" fill="white"/>
<path opacity="0.3" d="M187.398 382.557V383.73H191.461V382.557H187.398ZM184.032 379.548C181.737 379.548 180.071 381.044 180.071 383.186C180.071 385.328 181.737 386.807 184.032 386.807C186.31 386.807 187.993 385.328 187.993 383.186C187.993 381.044 186.31 379.548 184.032 379.548ZM184.032 380.755C185.528 380.755 186.633 381.741 186.633 383.186C186.633 384.631 185.528 385.634 184.032 385.634C182.519 385.634 181.431 384.631 181.431 383.186C181.431 381.741 182.519 380.755 184.032 380.755ZM191.07 378.681V387.504H192.481V378.681H191.07ZM182.519 388.303V393.845H192.481V388.303H182.519ZM191.104 389.425V392.706H183.896V389.425H191.104ZM207.474 389.068V390.258H208.477C210.942 390.258 212.438 390.207 214.223 389.85L214.07 388.677C212.353 389.017 210.908 389.068 208.477 389.068H207.474ZM207.474 380.432V389.51H208.817V381.588H213.526V380.432H207.474ZM208.409 384.495V385.634H213.288V384.495H208.409ZM218.575 378.681V394.049H219.935V378.681H218.575ZM216.144 384.835V386.008H219.085V384.835H216.144ZM215.192 379.004V393.284H216.535V379.004H215.192ZM235.641 379.684V380.823H245.246V379.684H235.641ZM233.907 386.28V387.436H247.796V386.28H233.907ZM240.112 387.045V394.066H241.523V387.045H240.112ZM244.583 379.684V381.01C244.583 382.557 244.583 384.342 243.988 386.824L245.382 387.011C245.96 384.41 245.96 382.608 245.96 381.01V379.684H244.583Z" fill="white"/>
<path opacity="0.3" d="M187.177 501.503V502.642H191.614V501.503H187.177ZM187.177 504.818V505.957H191.648V504.818H187.177ZM191.07 498.698V510.071H192.481V498.698H191.07ZM182.604 512.553V513.709H192.855V512.553H182.604ZM182.604 508.966V513.148H184.015V508.966H182.604ZM180.598 499.701V507.453H187.534V499.701H186.157V502.421H181.992V499.701H180.598ZM181.992 503.526H186.157V506.297H181.992V503.526ZM210.279 506.586V511.193H211.673V506.586H210.279ZM215.957 506.586V511.193H217.368V506.586H215.957ZM206.879 510.921V512.094H220.802V510.921H206.879ZM213.815 499.65C210.551 499.65 208.222 501.197 208.222 503.611C208.222 506.008 210.551 507.555 213.815 507.555C217.062 507.555 219.391 506.008 219.391 503.611C219.391 501.197 217.062 499.65 213.815 499.65ZM213.815 500.772C216.28 500.772 218.031 501.894 218.031 503.611C218.031 505.311 216.28 506.433 213.815 506.433C211.35 506.433 209.582 505.311 209.582 503.611C209.582 501.894 211.35 500.772 213.815 500.772ZM244.413 498.698V510.224H245.824V498.698H244.413ZM245.382 503.73V504.92H248.102V503.73H245.382ZM233.941 500.551V501.69H243.019V500.551H233.941ZM238.48 502.54C236.287 502.54 234.791 503.679 234.791 505.413C234.791 507.13 236.287 508.269 238.48 508.269C240.656 508.269 242.152 507.13 242.152 505.413C242.152 503.679 240.656 502.54 238.48 502.54ZM238.48 503.645C239.857 503.645 240.809 504.342 240.809 505.413C240.809 506.467 239.857 507.164 238.48 507.164C237.086 507.164 236.134 506.467 236.134 505.413C236.134 504.342 237.086 503.645 238.48 503.645ZM237.766 498.681V501.146H239.177V498.681H237.766ZM236.253 512.553V513.709H246.521V512.553H236.253ZM236.253 509.306V513.046H237.664V509.306H236.253Z" fill="white"/>
<path opacity="0.2" d="M192.296 318.491V332.987H193.624V318.491H192.296ZM185.992 319.611C183.864 319.611 182.328 321.579 182.328 324.651C182.328 327.739 183.864 329.707 185.992 329.707C188.136 329.707 189.672 327.739 189.672 324.651C189.672 321.579 188.136 319.611 185.992 319.611ZM185.992 320.811C187.416 320.811 188.392 322.315 188.392 324.651C188.392 327.003 187.416 328.539 185.992 328.539C184.584 328.539 183.592 327.003 183.592 324.651C183.592 322.315 184.584 320.811 185.992 320.811ZM213.031 319.931V320.539C213.031 322.443 210.551 324.107 208.007 324.475L208.519 325.531C211.431 325.035 214.183 323.131 214.183 320.539V319.931H213.031ZM213.367 319.931V320.539C213.367 323.131 216.103 325.035 219.031 325.531L219.527 324.475C216.999 324.107 214.503 322.443 214.503 320.539V319.931H213.367ZM213.079 327.451V332.971H214.391V327.451H213.079ZM207.239 326.747V327.835H220.311V326.747H207.239ZM208.455 319.403V320.475H219.047V319.403H208.455ZM239.254 320.587V321.675H243.67V320.587H239.254ZM239.254 323.915V325.019H243.67V323.915H239.254ZM236.614 319.355C234.47 319.355 232.886 320.795 232.886 322.795C232.886 324.811 234.47 326.235 236.614 326.235C238.742 326.235 240.342 324.811 240.342 322.795C240.342 320.795 238.742 319.355 236.614 319.355ZM236.614 320.491C238.022 320.491 239.078 321.435 239.078 322.795C239.078 324.155 238.022 325.099 236.614 325.099C235.206 325.099 234.166 324.155 234.166 322.795C234.166 321.435 235.206 320.491 236.614 320.491ZM243.238 318.507V327.067H244.566V318.507H243.238ZM239.814 327.403C236.822 327.403 234.982 328.427 234.982 330.171C234.982 331.931 236.822 332.939 239.814 332.939C242.79 332.939 244.63 331.931 244.63 330.171C244.63 328.427 242.79 327.403 239.814 327.403ZM239.814 328.459C241.99 328.459 243.318 329.099 243.318 330.171C243.318 331.259 241.99 331.899 239.814 331.899C237.622 331.899 236.294 331.259 236.294 330.171C236.294 329.099 237.622 328.459 239.814 328.459Z" fill="white"/>
<path opacity="0.1" d="M185.28 259.218V260.223H193.755V259.218H185.28ZM183.75 265.038V266.058H196.005V265.038H183.75ZM189.225 265.713V271.908H190.47V265.713H189.225ZM193.17 259.218V260.388C193.17 261.753 193.17 263.328 192.645 265.518L193.875 265.683C194.385 263.388 194.385 261.798 194.385 260.388V259.218H193.17ZM208.859 259.683V260.718H217.589V259.683H208.859ZM207.599 268.968V270.003H219.854V268.968H207.599ZM210.599 264.483V269.343H211.829V264.483H210.599ZM217.184 259.683V261.183C217.184 262.863 217.184 264.663 216.704 267.063L217.949 267.213C218.414 264.678 218.414 262.908 218.414 261.183V259.683H217.184ZM213.944 264.483V269.343H215.174V264.483H213.944ZM240.703 258.333V268.953H241.948V258.333H240.703ZM241.423 263.058V264.093H243.928V263.058H241.423ZM233.368 270.573V271.593H242.428V270.573H233.368ZM233.368 268.248V270.888H234.613V268.248H233.368ZM234.988 264.963V266.808H236.233V264.963H234.988ZM231.523 267.393C233.878 267.378 237.133 267.318 239.998 266.793L239.893 265.908C237.103 266.343 233.758 266.388 231.358 266.388L231.523 267.393ZM231.703 259.653V260.598H239.488V259.653H231.703ZM235.603 261.153C233.698 261.153 232.438 261.948 232.438 263.238C232.438 264.543 233.698 265.338 235.603 265.338C237.508 265.338 238.753 264.543 238.753 263.238C238.753 261.948 237.508 261.153 235.603 261.153ZM235.603 262.038C236.803 262.038 237.583 262.503 237.583 263.238C237.583 263.988 236.803 264.438 235.603 264.438C234.388 264.438 233.608 263.988 233.608 263.238C233.608 262.503 234.388 262.038 235.603 262.038ZM234.988 258.273V260.073H236.233V258.273H234.988Z" fill="white"/>
<path opacity="0.2" d="M192.296 558.491V572.987H193.624V558.491H192.296ZM185.992 559.611C183.864 559.611 182.328 561.579 182.328 564.651C182.328 567.739 183.864 569.707 185.992 569.707C188.136 569.707 189.672 567.739 189.672 564.651C189.672 561.579 188.136 559.611 185.992 559.611ZM185.992 560.811C187.416 560.811 188.392 562.315 188.392 564.651C188.392 567.003 187.416 568.539 185.992 568.539C184.584 568.539 183.592 567.003 183.592 564.651C183.592 562.315 184.584 560.811 185.992 560.811ZM207.991 559.755V566.491H214.727V559.755H207.991ZM213.447 560.827V565.419H209.271V560.827H213.447ZM217.751 558.523V568.907H219.095V558.523H217.751ZM209.799 571.403V572.507H219.527V571.403H209.799ZM209.799 567.915V571.851H211.111V567.915H209.799ZM236.502 560.571V562.923C236.502 565.419 234.758 568.139 232.662 569.131L233.43 570.187C235.734 569.051 237.574 565.979 237.574 562.923V560.571H236.502ZM236.758 560.571V562.923C236.758 565.931 238.614 568.747 240.95 569.835L241.702 568.779C239.574 567.867 237.83 565.371 237.83 562.923V560.571H236.758ZM233.142 559.979V561.099H241.222V559.979H233.142ZM243.174 558.507V572.971H244.502V558.507H243.174Z" fill="white"/>
<path d="M350.583 32.3711H352.683L358.04 45.7017L363.386 32.3711H365.497L358.849 48.7227H357.209L350.583 32.3711ZM349.898 32.3711H351.751L352.054 42.3438V48.7227H349.898V32.3711ZM364.318 32.3711H366.171V48.7227H364.015V42.3438L364.318 32.3711ZM380.366 46.9595V48.7227H371.708V46.9595H380.366ZM372.146 32.3711V48.7227H369.978V32.3711H372.146ZM379.221 39.4014V41.1646H371.708V39.4014H379.221ZM380.254 32.3711V34.1455H371.708V32.3711H380.254ZM395.628 32.3711V48.7227H393.45L385.218 36.1108V48.7227H383.05V32.3711H385.218L393.483 45.0166V32.3711H395.628ZM408.824 32.3711H410.98V43.4331C410.98 44.661 410.707 45.6829 410.161 46.499C409.614 47.3151 408.888 47.929 407.982 48.3408C407.083 48.7451 406.106 48.9473 405.051 48.9473C403.943 48.9473 402.939 48.7451 402.041 48.3408C401.15 47.929 400.443 47.3151 399.918 46.499C399.402 45.6829 399.144 44.661 399.144 43.4331V32.3711H401.289V43.4331C401.289 44.2866 401.446 44.9904 401.76 45.5444C402.075 46.0985 402.513 46.5103 403.074 46.7798C403.643 47.0493 404.302 47.1841 405.051 47.1841C405.807 47.1841 406.466 47.0493 407.027 46.7798C407.596 46.5103 408.038 46.0985 408.353 45.5444C408.667 44.9904 408.824 44.2866 408.824 43.4331V32.3711Z" fill="#BA3737"/>
</svg>
