<svg id="Layer_1" data-name="Layer 1" xmlns="http://www.w3.org/2000/svg" viewBox="0 0 1056.86 201.7"><defs><style>.cls-1{fill:#bc472c;}</style></defs><title>Untitled-1</title><path class="cls-1" d="M28.31,198.52,0,3.19H28.85l9,80.56c2.66,23.19,5.13,48.4,7.08,68.11h.35c2-21.16,4.78-44.63,7.79-68.69l10.09-80H91.85l9.55,82.3c2.66,22.9,4.6,43.76,6.37,65.5h.36c1.77-21.74,4.42-44.63,6.9-67.82l9.73-80h27.43L121.4,198.52H92.2L82.11,114.47c-2.3-19.7-4.25-38-5.66-60.28H76.1C74,76.22,72,94.77,69.19,114.47L57.87,198.52Z"/><path class="cls-1" d="M282.79,98.82c0,64.05-23.71,102.88-58.57,102.88-35.39,0-56.1-43.76-56.1-99.4C168.12,43.76,191,0,226.17,0,262.8,0,282.79,44.92,282.79,98.82Zm-86.18,2.61c0,38.25,11,65.21,29,65.21,18.23,0,28.67-28.4,28.67-66.37,0-35.07-10.26-65.2-28.84-65.2C207.23,35.07,196.61,63.47,196.61,101.43Z"/><path class="cls-1" d="M309.34,5.79c8.67-2.31,21.59-4,35.93-4,17.69,0,30.08,4.35,38.57,15.36,7.08,9.27,11,22.89,11,40.86,0,24.92-10.8,42-21.06,48.11v.87c8.31,5.5,12.92,18.54,15.92,36.51,3.72,22,7.44,47.53,9.74,55.07H371.81c-1.95-5.51-4.78-21.45-8.32-45.5-3.18-24.35-8.31-31-19.29-31.3h-8.14v76.8H309.34Zm26.72,84.05h10.62c13.45,0,21.41-11,21.41-28.11,0-18-7.43-26.95-19.82-27.24a42.09,42.09,0,0,0-12.21,1.44Z"/><path class="cls-1" d="M423.13,3.19h26.72V89.55h.53C453,82,455.87,75.06,458.53,68.1L485.6,3.19h33.09L479.23,86.36l41.59,112.16h-31.5l-29.2-84.34-10.27,20.58v63.76H423.13Z"/><path class="cls-1" d="M541.53,153c7.25,6.08,18.4,12.17,29.9,12.17,12.39,0,18.94-8.41,18.94-21.16,0-12.17-5.66-19.12-20-27.53-19.82-11.3-32.74-29.27-32.74-57.67,0-33.33,17-58.83,45.13-58.83A50.11,50.11,0,0,1,613.2,9.85l-6,35.65c-4.78-3.77-13.27-9.28-24.95-9.28s-17.34,8.7-17.34,18.84c0,12.46,6.72,18,22.12,27.53,21,12.76,31,30.72,31,58.25,0,32.75-15.39,60.57-48.13,60.57-13.63,0-27.08-5.79-33.8-11.88Z"/><path class="cls-1" d="M645.05,5.79c8.32-2.31,20-4,36.46-4C698.14,1.74,710,7,718,17.39c7.61,9.85,12.74,26.08,12.74,45.21S726.81,98,719.73,109c-9.2,14.2-22.83,20.57-38.75,20.57a42,42,0,0,1-9.21-.87v69.85H645.05Zm26.72,88.69c2.3.87,5.14,1.15,9,1.15,14.33,0,23.18-11.88,23.18-31.87,0-18-7.61-28.69-21.06-28.69-5.48,0-9.2.86-11.15,1.73Z"/><path class="cls-1" d="M773.89,148.38l-8.5,50.14h-28L773.89,3.19h35.39l37,195.33h-29L808,148.38Zm30.26-33L796.72,73.9c-2.13-11.59-4.25-26.08-6-37.68h-.35c-1.77,11.6-3.54,26.38-5.49,37.68l-7.08,41.44Z"/><path class="cls-1" d="M954.22,193c-5,4.06-16.11,8.4-30.62,8.4-41.23,0-62.46-42-62.46-97.66C861.14,37.1,890.16,0,926.26,0c14,0,24.6,4.64,29.37,8.69l-5.48,35.07a39.68,39.68,0,0,0-22.65-7.25c-21.42,0-38,21.16-38,64.63,0,39.12,14.16,63.76,38.22,63.76,8.14,0,17.17-2.9,22.48-6.38Z"/><path class="cls-1" d="M1051.73,115.92h-43.89v46.37h49v36.23H980.77V3.19h73.61V39.41h-46.54V80h43.89Z"/></svg>